<svg xmlns="http://www.w3.org/2000/svg" viewBox="0 0 18 18"><defs><style>.cls-1{fill:#ccc;}.cls-2{fill:#fff;}</style></defs><title>4-3.產品內容(票券)</title><g id="_3.編輯內容3_-_票種設定" data-name="3.編輯內容3 - 票種設定"><path class="cls-1" d="M9,17H9A8,8,0,0,1,1,9H1A8,8,0,0,1,9,1H9a8,8,0,0,1,8,8h0A8,8,0,0,1,9,17Z"/><path class="cls-2" d="M11.77,11.77h0a.78.78,0,0,1-1.11,0L6.23,7.34a.78.78,0,0,1,0-1.11h0a.78.78,0,0,1,1.11,0l4.43,4.43A.78.78,0,0,1,11.77,11.77Z"/><path class="cls-2" d="M11.77,6.23h0a.78.78,0,0,1,0,1.11L7.34,11.77a.78.78,0,0,1-1.11,0h0a.78.78,0,0,1,0-1.11l4.43-4.43A.78.78,0,0,1,11.77,6.23Z"/></g></svg>