<svg xmlns="http://www.w3.org/2000/svg" viewBox="0 0 45 45"><defs><style>.cls-1{fill:#ccc;}</style></defs><title>住宿類型icon</title><g id="圖層_5" data-name="圖層 5"><path class="cls-1" d="M22.5,41.5c-10.6,0-19.24-5-19.24-11.12a7.79,7.79,0,0,1,2.61-5.56.27.27,0,0,1,.38,0,.32.32,0,0,1,.13.38,3.65,3.65,0,0,0-.17,1.07c0,4.32,7.31,7.87,16.29,7.87s16.29-3.55,16.29-7.87a3.27,3.27,0,0,0-.17-1.07.34.34,0,0,1,.13-.38.32.32,0,0,1,.38,0,7.94,7.94,0,0,1,2.61,5.56C41.74,36.54,33.1,41.5,22.5,41.5Z"/><path class="cls-1" d="M10.66,7.38a12.83,12.83,0,0,0-3.25,4.23A5.23,5.23,0,0,0,8.52,17c.9,1,1.67,1.75,2.18,2.27s2.61,2.91,1.37,7.14a3.7,3.7,0,0,0-.3.81c0,.3,0,1.71,1.75.47s3.12-5.34,3.12-5.34a5,5,0,0,0-1.37-5.09c-2.35-2.18-2.65-2.78-3.08-3.93s-1.24-3.16-.3-5l.38-.81C12.2,7.47,12.45,6.06,10.66,7.38Z"/><path class="cls-1" d="M35.2,7.51a12.6,12.6,0,0,0-4.49,2.86,5.09,5.09,0,0,0-.77,5.39c.51,1.24,1,2.22,1.28,2.86s1.45,3.63-1.15,7.18a3.19,3.19,0,0,0-.56.64c-.17.26-.64,1.58,1.45,1.07s4.75-4,4.75-4a5,5,0,0,0,.47-5.22c-1.45-2.82-1.54-3.55-1.58-4.75S34.51,10.21,36,8.8l.64-.64S37.33,6.91,35.2,7.51Z"/><path class="cls-1" d="M22,4.31s-4.45,3.42-4.32,6.8,1.67,4.15,2.52,5.64,2.27,3.59,1,8c0,0-.73,1.62-.9,1.92s-.73,2.44,1.67,1a15.49,15.49,0,0,0,3.89-5s1.92-3.08-.68-7.14c-1.28-2.82-3.55-5.64-1.88-9.45a7.84,7.84,0,0,0,.9-1.8S24.81,2.47,22,4.31Z"/></g></svg>