<svg xmlns="http://www.w3.org/2000/svg" viewBox="0 0 40 40"><defs><style>.cls-1{fill:#ccc;}</style></defs><title>4-2.產品內容(旅遊行程)</title><g id="_2.產品內容2-行程介紹" data-name="2.產品內容2-行程介紹"><path class="cls-1" d="M27.17,13a1,1,0,0,0-1.12,1.73c1.88,1.22,1.42,6,1.07,7.58a1.07,1.07,0,0,0,.81,1.22h.2a1,1,0,0,0,1-.81C29.31,22,30.58,15.22,27.17,13Z"/><path class="cls-1" d="M28.14,24h-.31a1.48,1.48,0,0,1-1.1-1.68c.44-2,.64-6.18-.89-7.17a1.42,1.42,0,0,1,.51-2.6,1.38,1.38,0,0,1,1,.2c3.75,2.41,2.22,9.82,2.16,10.13A1.43,1.43,0,0,1,28.14,24Zm-.14-.8h.14a.63.63,0,0,0,.62-.49c0-.08,1.49-7.19-1.81-9.3h0a.6.6,0,0,0-.45-.08.62.62,0,0,0-.22,1.14c2.2,1.43,1.54,6.67,1.24,8A.66.66,0,0,0,28,23.16Z"/><path class="cls-1" d="M33.73,26.87V18.73A13.93,13.93,0,0,0,23.66,5.25h.41a4.07,4.07,0,0,0-8.14,0h.41A13.93,13.93,0,0,0,6.27,18.73v8.09a6.06,6.06,0,0,0-4.58,5.9v1H14a6.08,6.08,0,0,0,12,0H38.31v-1A6,6,0,0,0,33.73,26.87ZM20,3.21a2,2,0,0,1,2,1.73,13,13,0,0,0-2-.15,12.54,12.54,0,0,0-2,.15A2,2,0,0,1,20,3.21Zm0,33.57a4,4,0,0,1-3.92-3.05H24A4,4,0,0,1,20,36.79ZM3.88,31.7a4.09,4.09,0,0,1,3.92-3.05H9.32a1,1,0,1,0,0-2h-1V18.73a11.7,11.7,0,1,1,23.4,0v7.88H30.17a1,1,0,1,0,0,2h2a4,4,0,0,1,3.92,3.05Z"/><path class="cls-1" d="M20,39.22a6.5,6.5,0,0,1-6.33-5.09H1.29V32.72a6.46,6.46,0,0,1,4.58-6.21V18.73A14.43,14.43,0,0,1,15.53,5.07a4.47,4.47,0,0,1,8.93,0,14.43,14.43,0,0,1,9.67,13.66v7.83a6.42,6.42,0,0,1,4.58,6.16v1.42H26.33A6.51,6.51,0,0,1,20,39.22ZM2.09,33.33H14.34l.06.33a5.68,5.68,0,0,0,11.21,0l.05-.34H37.91v-.62a5.63,5.63,0,0,0-4.28-5.46l-.3-.08V18.73A13.56,13.56,0,0,0,23.56,5.64l-1.13-.3v.08l-.51-.08a12.77,12.77,0,0,0-3.84,0l-.52.09V5.34l-1.13.3A13.56,13.56,0,0,0,6.67,18.73v8.4l-.3.08a5.66,5.66,0,0,0-4.27,5.51ZM22.38,4.85h1.27a3.67,3.67,0,0,0-7.29,0h1.27a2.41,2.41,0,0,1,4.75,0ZM20,4.39a13.42,13.42,0,0,1,1.43.08,1.62,1.62,0,0,0-2.85,0A13.66,13.66,0,0,1,20,4.39Zm0,32.8a4.36,4.36,0,0,1-4.31-3.36l-.11-.49h8.9l-.13.5A4.43,4.43,0,0,1,20,37.19Zm-3.37-3.05A3.58,3.58,0,0,0,20,36.38a3.64,3.64,0,0,0,3.41-2.25Zm20-2H3.36l.13-.5a4.47,4.47,0,0,1,4.3-3.35H9.32a.62.62,0,1,0,0-1.23H7.9V18.73a12.1,12.1,0,1,1,24.2,0V27H30.17a.62.62,0,0,0,0,1.23h2a4.44,4.44,0,0,1,4.31,3.36ZM4.44,31.3H35.58A3.65,3.65,0,0,0,32.21,29h-2a1.42,1.42,0,0,1,0-2.84H31.3V18.73a11.3,11.3,0,1,0-22.6,0v7.48h.62a1.42,1.42,0,0,1,0,2.84H7.79A3.66,3.66,0,0,0,4.44,31.3Z"/></g></svg>