<svg xmlns="http://www.w3.org/2000/svg" viewBox="0 0 40 40"><defs><style>.cls-1{fill:#ccc;}</style></defs><title>4-2.產品內容(旅遊行程)</title><g id="_2.產品內容2-行程介紹" data-name="2.產品內容2-行程介紹"><path class="cls-1" d="M38.68,23.9a.71.71,0,0,0-.1-.3l-3.9-9.2V12.7a9.49,9.49,0,0,0-9.5-9.5H14.83a9.49,9.49,0,0,0-9.5,9.5v1.7l-3.9,9.2c-.05.1-.05.2-.1.3s-.05.2-.05.3V35.3a1.47,1.47,0,0,0,1.5,1.5,1.47,1.47,0,0,0,1.5-1.5V32.7H35.63v2.6a1.5,1.5,0,1,0,3,0V24.15C38.73,24.1,38.73,24,38.68,23.9Zm-31-7.2H11a3.44,3.44,0,0,0,3.4,2.65h11.3a3.54,3.54,0,0,0,3.4-2.65h3.35l2.55,6H5.09Zm18-4.7a.47.47,0,0,1,.5.5v3.35a.47.47,0,0,1-.5.5H21.53V12Zm-7.15,4.35H14.38a.47.47,0,0,1-.5-.5V12.5a.47.47,0,0,1,.5-.5h4.15ZM8.34,12.7a6.49,6.49,0,0,1,6.5-6.5h10.4a6.49,6.49,0,0,1,6.5,6.5v1H29.18V12.5A3.48,3.48,0,0,0,25.68,9H14.38a3.48,3.48,0,0,0-3.5,3.5v1.15H8.34Zm-4,13H35.68v4H4.34Z"/></g></svg>