<svg xmlns="http://www.w3.org/2000/svg" viewBox="0 0 40 40"><defs><style>.cls-1{fill:none;}.cls-2{fill:#ccc;}</style></defs><title>4-2.產品內容(旅遊行程)</title><g id="_2.產品內容2-行程介紹" data-name="2.產品內容2-行程介紹"><path class="cls-1" d="M27.41,38a2.21,2.21,0,0,1-2.19-2l1.28-16.74a3.17,3.17,0,0,0-1.61-3,7.78,7.78,0,0,1-3.51-6.78c0-4.12,2.71-7.47,6-7.47s6,3.35,6,7.47a7.78,7.78,0,0,1-3.51,6.78,3.17,3.17,0,0,0-1.61,3L29.6,36A2.21,2.21,0,0,1,27.41,38Z"/><path class="cls-2" d="M27.41,3.4c2.52,0,4.66,2.79,4.66,6.09a6.4,6.4,0,0,1-2.82,5.58,4.62,4.62,0,0,0-1.84,2,4.61,4.61,0,0,0-1.84-2,6.4,6.4,0,0,1-2.82-5.58c0-3.3,2.13-6.09,4.66-6.09m0,22L28.22,36a.83.83,0,0,1-1.62,0l.81-10.61m0-24.7C23.32.65,20,4.6,20,9.49a9.11,9.11,0,0,0,4.2,8,1.81,1.81,0,0,1,.92,1.7L23.84,36A3.58,3.58,0,0,0,31,36L29.69,19.16a1.81,1.81,0,0,1,.92-1.7,9.11,9.11,0,0,0,4.2-8C34.81,4.6,31.5.65,27.41.65Z"/><path class="cls-2" d="M11.16,14.06a3.93,3.93,0,0,0,2,.79,3.31,3.31,0,0,1-.51.34,3.83,3.83,0,0,0-1.53,1.52,3.84,3.84,0,0,0-1.53-1.52,3.25,3.25,0,0,1-.5-.34,3.92,3.92,0,0,0,2-.79m0,11.29L12,36a.83.83,0,0,1-1.62,0l.81-10.61M15.94.65a1.19,1.19,0,0,0-1.19,1.19v9.08a1.19,1.19,0,0,1-2.39,0V1.84a1.19,1.19,0,0,0-2.39,0v9.08a1.19,1.19,0,0,1-2.39,0V1.84a1.19,1.19,0,0,0-2.39,0V12.35a6,6,0,0,0,3.14,5.25,1.18,1.18,0,0,1,.58,1.14L7.59,36a3.58,3.58,0,0,0,7.14,0L13.41,18.75A1.18,1.18,0,0,1,14,17.61a6,6,0,0,0,3.14-5.25V1.84A1.19,1.19,0,0,0,15.94.65Z"/></g></svg>