<svg xmlns="http://www.w3.org/2000/svg" viewBox="0 0 40 40"><defs><style>.cls-1{fill:none;}.cls-2{fill:#ccc;}</style></defs><title>4-2.產品內容(旅遊行程)</title><g id="_2.產品內容2-行程介紹" data-name="2.產品內容2-行程介紹"><path class="cls-1" d="M20,36.55c-4.11-5.4-12-16.8-12-22a12,12,0,1,1,24,0C32,19.75,24.11,31.15,20,36.55Z"/><path class="cls-2" d="M20,3.94A10.66,10.66,0,0,1,30.64,14.58c0,4.05-5.87,13.32-10.65,19.76C15.23,27.9,9.36,18.64,9.36,14.58A10.66,10.66,0,0,1,20,3.94m0-2.66A13.31,13.31,0,0,0,6.69,14.58C6.69,21.93,20,38.72,20,38.72h0S33.31,21.93,33.31,14.58A13.31,13.31,0,0,0,20,1.28Z"/><circle class="cls-1" cx="20" cy="14.58" r="3.99"/><path class="cls-2" d="M20,11.92a2.66,2.66,0,1,1-2.66,2.66A2.66,2.66,0,0,1,20,11.92m0-2.66a5.32,5.32,0,1,0,5.32,5.32A5.32,5.32,0,0,0,20,9.26Z"/></g></svg>